<svg id="visual" viewBox="0 0 900 600" width="900" height="600" xmlns="http://www.w3.org/2000/svg" xmlns:xlink="http://www.w3.org/1999/xlink" version="1.1"><rect x="0" y="0" width="900" height="600" fill="#001220"></rect><path d="M0 436L25 434.2C50 432.3 100 428.7 150 426.7C200 424.7 250 424.3 300 414.2C350 404 400 384 450 386.3C500 388.7 550 413.3 600 424.3C650 435.3 700 432.7 750 422.8C800 413 850 396 875 387.5L900 379L900 601L875 601C850 601 800 601 750 601C700 601 650 601 600 601C550 601 500 601 450 601C400 601 350 601 300 601C250 601 200 601 150 601C100 601 50 601 25 601L0 601Z" fill="#f7edcb"></path><path d="M0 433L25 437.8C50 442.7 100 452.3 150 455.8C200 459.3 250 456.7 300 455C350 453.3 400 452.7 450 448.8C500 445 550 438 600 440.2C650 442.3 700 453.7 750 454.5C800 455.3 850 445.7 875 440.8L900 436L900 601L875 601C850 601 800 601 750 601C700 601 650 601 600 601C550 601 500 601 450 601C400 601 350 601 300 601C250 601 200 601 150 601C100 601 50 601 25 601L0 601Z" fill="#9e8f7b"></path><path d="M0 508L25 511.8C50 515.7 100 523.3 150 520.2C200 517 250 503 300 499C350 495 400 501 450 510C500 519 550 531 600 529C650 527 700 511 750 509.8C800 508.7 850 522.3 875 529.2L900 536L900 601L875 601C850 601 800 601 750 601C700 601 650 601 600 601C550 601 500 601 450 601C400 601 350 601 300 601C250 601 200 601 150 601C100 601 50 601 25 601L0 601Z" fill="#493d34"></path></svg>