<svg id="visual" viewBox="0 0 900 600" width="900" height="600" xmlns="http://www.w3.org/2000/svg" xmlns:xlink="http://www.w3.org/1999/xlink" version="1.1"><path d="M0 331L37.5 286C75 241 150 151 225 127C300 103 375 145 450 157C525 169 600 151 675 136C750 121 825 109 862.5 103L900 97L900 0L862.5 0C825 0 750 0 675 0C600 0 525 0 450 0C375 0 300 0 225 0C150 0 75 0 37.5 0L0 0Z" fill="#2c241b"></path><path d="M0 409L37.5 399C75 389 150 369 225 366C300 363 375 377 450 387C525 397 600 403 675 393C750 383 825 357 862.5 344L900 331L900 95L862.5 101C825 107 750 119 675 134C600 149 525 167 450 155C375 143 300 101 225 125C150 149 75 239 37.5 284L0 329Z" fill="#231d16"></path><path d="M0 535L37.5 513C75 491 150 447 225 430C300 413 375 423 450 432C525 441 600 449 675 441C750 433 825 409 862.5 397L900 385L900 329L862.5 342C825 355 750 381 675 391C600 401 525 395 450 385C375 375 300 361 225 364C150 367 75 387 37.5 397L0 407Z" fill="#1b1611"></path><path d="M0 601L37.5 601C75 601 150 601 225 601C300 601 375 601 450 601C525 601 600 601 675 601C750 601 825 601 862.5 601L900 601L900 383L862.5 395C825 407 750 431 675 439C600 447 525 439 450 430C375 421 300 411 225 428C150 445 75 489 37.5 511L0 533Z" fill="#120d0a"></path></svg>